
<svg width="50%"  viewBox="0 0 221 106" version="1.1" xmlns="http://www.w3.org/2000/svg" xmlns:xlink="http://www.w3.org/1999/xlink" xml:space="preserve" xmlns:serif="http://www.serif.com/" style="fill-rule:evenodd;clip-rule:evenodd;stroke-linejoin:round;stroke-miterlimit:2;">
                <g transform="matrix(1,0,0,1,-10,-6)">
                    <path d="M127.831,111.363C156.926,111.363 180.513,87.777 180.513,58.682C180.513,29.586 156.926,6 127.831,6C98.736,6 75.149,29.586 75.149,58.682C75.149,87.777 98.736,111.363 127.831,111.363Z" style="fill:white;fill-rule:nonzero;"></path>
                    <path d="M149.611,76.219C149.611,77.51 149.092,78.747 148.171,79.653C142.902,84.746 135.731,87.888 127.832,87.888C111.712,87.888 98.625,74.801 98.625,58.682C98.625,42.562 111.712,29.475 127.832,29.475C136.536,29.475 144.356,33.291 149.708,39.339C150.602,40.364 150.66,41.872 149.847,42.962C146.483,47.492 137.93,58.968 137.93,58.968C137.417,59.656 136.61,60.061 135.752,60.061C134.894,60.061 134.087,59.656 133.574,58.968C130.151,54.375 123.438,45.368 118.927,39.316C118.275,38.442 117.137,38.084 116.103,38.427C115.068,38.77 114.37,39.737 114.37,40.828L114.37,74.516C114.37,76.165 115.025,77.747 116.192,78.914C117.358,80.08 118.941,80.736 120.59,80.736L122.006,80.736L122.006,58.168C122.006,57.867 122.202,57.6 122.489,57.51C122.777,57.42 123.089,57.527 123.262,57.774C125.487,60.968 130.171,67.691 133.144,71.958C133.751,72.83 134.746,73.349 135.809,73.349C136.871,73.349 137.866,72.83 138.474,71.958C141.271,67.943 145.582,61.755 147.936,58.377C148.166,58.047 148.583,57.904 148.966,58.025C149.35,58.145 149.611,58.5 149.611,58.903L149.611,76.219Z" style="fill:rgb(216,52,86);"></path>
                    <path d="M217.489,59.966L217.489,57.671L222.47,57.671C222.894,57.671 223.204,57.682 223.512,57.692C223.766,57.699 224.01,57.709 224.279,57.709L224.584,57.727C225.043,57.745 225.26,57.756 225.39,57.803C225.566,57.859 225.686,58.09 225.686,58.364L225.686,59.273C225.686,59.414 225.655,59.756 225.402,59.83C225.216,59.893 225.007,59.966 224.279,59.966L217.489,59.966ZM212.205,67.6C212.205,69.462 212.762,70.502 214.068,71.063C214.998,71.444 215.607,71.515 218.145,71.515L229.871,71.515L229.871,66.673L220.702,66.673C220.293,66.673 219.999,66.664 219.711,66.655C219.451,66.647 219.207,66.635 218.899,66.635L218.615,66.62C218.09,66.596 217.939,66.59 217.763,66.537C217.608,66.487 217.489,66.449 217.489,65.188L217.489,64.646L225.034,64.646C226.885,64.646 227.122,64.646 227.857,64.566C228.763,64.425 229.418,64.144 229.897,63.711C230.639,63.086 230.962,62.195 230.962,60.737L230.962,59.713L231,59.379L231,58.131L230.962,57.608L230.962,56.585C230.962,54.747 230.393,53.678 229.11,53.118C228.229,52.743 227.578,52.67 225.034,52.67L212.169,52.67L212.169,65.001L212.205,66.555L212.205,67.6Z" style="fill:rgb(213,53,86);fill-rule:nonzero;"></path>
                    <rect x="176.62" y="45.573" width="5.246" height="5.084" style="fill:rgb(213,53,86);"></rect>
                    <rect x="176.62" y="52.675" width="5.246" height="18.772" style="fill:rgb(213,53,86);"></rect>
                    <rect x="202.591" y="45.573" width="5.245" height="5.084" style="fill:rgb(213,53,86);"></rect>
                    <rect x="202.591" y="52.675" width="5.245" height="18.772" style="fill:rgb(213,53,86);"></rect>
                    <path d="M167.119,64.174L167.119,66.459L162.17,66.459C161.755,66.459 161.436,66.453 161.135,66.444C160.879,66.434 160.639,66.426 160.377,66.426L160.072,66.407C159.613,66.385 159.405,66.376 159.268,66.331C159.098,66.279 158.977,66.048 158.977,65.774L158.977,64.863C158.977,64.723 159.006,64.386 159.256,64.309C159.444,64.248 159.655,64.174 160.377,64.174L167.119,64.174ZM172.367,56.568C172.367,54.71 171.817,53.681 170.516,53.12C169.596,52.74 168.989,52.67 166.473,52.67L154.824,52.67L154.824,57.491L163.927,57.491C164.336,57.491 164.629,57.5 164.91,57.513C165.169,57.522 165.412,57.525 165.723,57.525L166,57.545C166.518,57.567 166.677,57.577 166.847,57.632C166.999,57.677 167.119,57.718 167.119,58.974L167.119,59.512L159.63,59.512C157.788,59.512 157.554,59.512 156.821,59.592C155.919,59.733 155.27,60.012 154.798,60.443C154.059,61.066 153.736,61.957 153.736,63.409L153.736,64.425L153.698,64.759L153.698,66.003L153.736,66.523L153.736,67.546C153.736,69.374 154.305,70.438 155.581,70.999C156.454,71.372 157.097,71.443 159.63,71.443L172.4,71.443L172.4,59.164L172.367,57.61L172.367,56.568Z" style="fill:rgb(213,53,86);fill-rule:nonzero;"></path>
                    <path d="M196.578,53.12C195.651,52.741 195.048,52.67 192.532,52.67L186.199,52.67L186.199,71.443L191.446,71.443L191.446,57.718L198.408,57.718L198.417,57.33L198.417,57.074L198.428,56.575L198.428,56.569C198.428,54.711 197.87,53.68 196.578,53.12Z" style="fill:rgb(213,53,86);fill-rule:nonzero;"></path>
                    <path d="M90.642,45.585C89.391,45.585 88.368,46.609 88.368,47.859L88.368,69.525C88.368,70.776 89.391,71.798 90.642,71.798L92.638,71.798C93.888,71.798 94.912,70.776 94.912,69.525L94.912,47.859C94.912,46.609 93.888,45.585 92.638,45.585L90.642,45.585Z" style="fill:rgb(94,138,198);fill-rule:nonzero;"></path>
                    <path d="M81.406,53.773C81.406,52.872 80.382,52.136 79.132,52.136L70.579,52.136C69.323,52.136 68.301,52.872 68.301,53.773C68.301,54.676 67.565,55.411 66.665,55.411C65.763,55.411 65.026,56.436 65.026,57.684L65.026,66.25C65.026,67.504 65.763,68.525 66.665,68.525C67.565,68.525 68.301,69.258 68.301,70.163C68.301,71.062 69.323,71.799 70.579,71.799L79.132,71.799C80.382,71.799 81.406,71.062 81.406,70.163C81.406,69.258 82.142,68.525 83.043,68.525C83.942,68.525 84.682,67.786 84.682,66.884C84.682,65.981 83.659,65.241 82.405,65.241L80.405,65.241C79.154,65.241 78.131,65.981 78.131,66.884C78.131,67.786 77.108,68.525 75.853,68.525L73.85,68.525C72.6,68.525 71.574,67.504 71.574,66.25L71.574,64.244C71.574,62.99 72.6,61.966 73.85,61.966L82.405,61.966C83.659,61.966 84.682,60.943 84.682,59.695L84.682,57.684C84.682,56.436 83.942,55.411 83.043,55.411C82.142,55.411 81.406,54.676 81.406,53.773ZM78.131,57.052C78.131,57.953 77.108,58.693 75.853,58.693L73.85,58.693C72.6,58.693 71.574,57.953 71.574,57.052C71.574,56.149 72.6,55.411 73.85,55.411L75.853,55.411C77.108,55.411 78.131,56.149 78.131,57.052Z" style="fill:rgb(94,138,198);fill-rule:nonzero;"></path>
                    <path d="M54.587,56.418C54.587,57.668 53.851,58.693 52.951,58.693C52.05,58.693 51.314,57.668 51.314,56.418L51.314,54.41C51.314,53.159 50.29,52.136 49.042,52.136L47.046,52.136C45.794,52.136 44.771,53.159 44.771,54.41L44.771,56.418C44.771,57.668 45.506,58.693 46.406,58.693C47.306,58.693 48.045,59.717 48.045,60.968L48.045,62.968C48.045,64.217 47.306,65.241 46.406,65.241C45.506,65.241 44.771,66.268 44.771,67.519L44.771,69.525C44.771,70.777 45.794,71.799 47.046,71.799L49.042,71.799C50.29,71.799 51.314,70.777 51.314,69.525L51.314,67.519C51.314,66.268 52.05,65.241 52.951,65.241C53.851,65.241 54.587,66.268 54.587,67.519L54.587,69.525C54.587,70.777 55.611,71.799 56.864,71.799L58.863,71.799C60.114,71.799 61.137,70.777 61.137,69.525L61.137,67.519C61.137,66.268 60.401,65.241 59.501,65.241C58.6,65.241 57.862,64.217 57.862,62.968L57.862,60.968C57.862,59.717 58.6,58.693 59.501,58.693C60.401,58.693 61.137,57.668 61.137,56.418L61.137,54.41C61.137,53.159 60.114,52.136 58.863,52.136L56.864,52.136C55.611,52.136 54.587,53.159 54.587,54.41L54.587,56.418Z" style="fill:rgb(94,138,198);fill-rule:nonzero;"></path>
                    <path d="M33.841,69.525C33.841,70.777 34.862,71.798 36.115,71.798L38.113,71.798C39.362,71.798 40.388,70.777 40.388,69.525L40.388,54.41C40.388,53.159 39.362,52.137 38.113,52.137L36.115,52.137C34.862,52.137 33.841,53.159 33.841,54.41L33.841,69.525Z" style="fill:rgb(94,138,198);fill-rule:nonzero;"></path>
                    <path d="M33.841,47.221C33.841,48.123 34.862,48.861 36.115,48.861L38.113,48.861C39.362,48.861 40.388,48.123 40.388,47.221C40.388,46.323 39.362,45.585 38.113,45.585L36.115,45.585C34.862,45.585 33.841,46.323 33.841,47.221Z" style="fill:rgb(94,138,198);fill-rule:nonzero;"></path>
                    <path d="M26.365,53.773C26.365,52.872 25.341,52.136 24.089,52.136L12.274,52.136C11.023,52.136 10,52.872 10,53.773L10,76.088C10,77.337 11.023,78.361 12.274,78.361L14.268,78.361C15.522,78.361 16.544,77.337 16.544,76.088L16.544,74.073C16.544,72.823 17.568,71.799 18.819,71.799L24.089,71.799C25.341,71.799 26.365,71.062 26.365,70.163C26.365,69.258 27.101,68.525 28.003,68.525C28.904,68.525 29.639,67.504 29.639,66.25L29.639,57.684C29.639,56.436 28.904,55.411 28.003,55.411C27.101,55.411 26.365,54.676 26.365,53.773ZM23.091,66.25C23.091,67.504 22.067,68.525 20.815,68.525L18.819,68.525C17.568,68.525 16.544,67.504 16.544,66.25L16.544,57.684C16.544,56.436 17.568,55.411 18.819,55.411L20.815,55.411C22.067,55.411 23.091,56.436 23.091,57.684L23.091,66.25Z" style="fill:rgb(94,138,198);fill-rule:nonzero;"></path>
                </g>
            </svg>
        